<?xml version="1.0" standalone="no"?>
<!DOCTYPE svg PUBLIC "-//W3C//DTD SVG 20010904//EN"
 "http://www.w3.org/TR/2001/REC-SVG-20010904/DTD/svg10.dtd">
<svg version="1.0" xmlns="http://www.w3.org/2000/svg"
 width="640.000000pt" height="640.000000pt" viewBox="0 0 640.000000 640.000000"
 preserveAspectRatio="xMidYMid meet">
<metadata>
Created by potrace 1.14, written by Peter Selinger 2001-2017
</metadata>
<g transform="translate(0.000000,640.000000) scale(0.100000,-0.100000)"
fill="#000000" stroke="none">
<path d="M5665 6385 c-27 -8 -61 -16 -75 -19 -22 -4 -372 -86 -440 -103 -14
-3 -29 -7 -35 -8 -5 -2 -136 -33 -290 -70 -154 -36 -287 -68 -295 -70 -15 -3
-142 -33 -255 -60 -33 -8 -127 -30 -210 -50 -82 -20 -168 -40 -190 -45 -22 -4
-128 -29 -235 -55 -107 -26 -202 -48 -210 -50 -8 -2 -91 -22 -185 -44 -93 -23
-208 -50 -255 -61 -47 -11 -161 -38 -255 -61 -93 -22 -181 -43 -195 -45 -14
-3 -43 -10 -65 -16 -22 -5 -48 -12 -57 -14 -43 -10 -58 -13 -143 -34 -49 -12
-97 -23 -105 -25 -44 -9 -304 -71 -430 -102 -80 -19 -152 -36 -160 -38 -14 -3
-96 -22 -132 -31 -10 -2 -26 -6 -36 -8 -10 -2 -47 -11 -83 -20 -126 -31 -494
-118 -519 -122 -14 -3 -95 -22 -180 -43 -85 -21 -200 -48 -255 -61 -125 -29
-202 -68 -264 -136 -99 -108 -131 -242 -91 -384 7 -25 14 -53 16 -63 2 -10 6
-27 9 -37 3 -10 7 -27 9 -37 2 -10 49 -198 105 -417 l101 -399 1 -1536 c0
-1486 1 -1538 20 -1610 61 -234 221 -402 464 -488 47 -17 199 -18 2550 -20
1511 -1 2518 1 2545 7 73 15 83 18 125 33 208 77 377 277 419 496 10 52 13
421 12 1721 -1 1639 -1 1655 -21 1682 -11 14 -33 34 -48 43 -26 15 -204 17
-2375 17 l-2347 1 135 33 c74 18 146 35 160 38 14 2 77 16 140 31 63 14 124
28 135 31 11 2 209 47 440 100 231 52 429 97 440 100 12 2 111 24 220 50 110
25 211 48 224 50 12 3 53 12 90 20 104 25 130 31 166 38 11 2 38 9 60 14 22 6
52 14 68 17 60 11 85 17 231 51 83 19 201 46 261 60 61 13 159 35 220 49 60
14 119 27 130 30 11 2 139 31 285 65 216 50 383 87 510 115 65 14 253 57 285
65 64 16 427 98 457 104 43 7 92 35 112 63 28 39 26 92 -9 221 -18 64 -56 205
-84 312 -111 424 -123 467 -145 516 -33 71 -109 145 -190 183 -81 39 -199 50
-281 26z m206 -291 c10 -9 22 -27 28 -42 8 -22 71 -251 85 -312 7 -26 77 -292
97 -364 10 -38 18 -70 16 -72 -7 -6 -524 -124 -543 -124 -12 0 -734 713 -734
724 0 5 54 19 250 66 142 33 194 46 280 65 8 2 74 17 145 35 72 17 162 38 200
46 39 9 75 17 80 19 14 3 76 -23 96 -41z m-642 -988 c-2 -3 -16 -7 -29 -9 -14
-3 -115 -26 -226 -51 -111 -26 -210 -48 -220 -51 -10 -2 -120 -27 -244 -55
-124 -28 -235 -53 -247 -56 -17 -3 -90 65 -381 356 -281 280 -356 361 -342
365 10 3 27 8 37 10 10 2 56 13 103 24 47 11 123 29 170 41 47 12 96 23 110
26 14 3 142 33 285 68 l260 63 365 -363 c200 -200 362 -365 359 -368z m-1655
65 l359 -359 -39 -11 c-59 -16 -304 -71 -344 -77 -19 -3 -37 -7 -40 -9 -3 -2
-127 -31 -275 -65 -149 -33 -276 -63 -283 -65 -7 -3 -172 155 -369 352 l-357
357 100 24 c54 13 173 41 264 64 91 22 176 42 189 44 20 4 127 29 171 40 8 2
69 17 135 33 66 16 122 30 125 30 3 1 167 -161 364 -358z m-1295 -305 l353
-353 -78 -18 c-44 -9 -124 -27 -179 -40 -100 -24 -269 -62 -314 -71 -12 -3
-91 -21 -175 -40 -83 -19 -158 -36 -166 -38 -8 -1 -32 -6 -52 -10 l-36 -8
-347 347 c-191 191 -345 349 -342 351 4 4 274 71 397 99 18 4 108 25 130 30 8
2 85 20 170 40 85 21 178 43 205 50 28 7 57 13 65 14 8 1 174 -158 369 -353z
m-1029 -666 c-41 -10 -187 -43 -325 -74 -137 -32 -296 -68 -353 -82 -57 -13
-109 -24 -117 -24 -10 0 -31 63 -50 150 -2 8 -33 135 -70 281 -75 294 -76 316
-24 367 24 23 52 34 142 56 62 14 123 28 136 31 13 2 26 7 29 9 2 3 162 -153
356 -346 l351 -351 -75 -17z m-14 -475 c1 -5 -86 -185 -194 -400 l-197 -390
-157 0 -158 -1 -2 390 c-2 268 0 393 8 400 14 15 696 15 700 1z m1336 -3 c-14
-37 -384 -768 -393 -777 -10 -10 -1029 -16 -1029 -5 0 12 393 789 401 792 5 2
238 3 518 3 419 0 508 -2 503 -13z m1338 10 c0 -5 -392 -787 -397 -792 -4 -5
-1033 -8 -1033 -3 0 1 90 181 199 400 l200 398 515 0 c284 0 516 -1 516 -3z
m1328 -5 c1 -4 -86 -184 -194 -400 l-197 -392 -513 0 c-283 0 -514 3 -514 7 0
9 379 769 390 783 10 12 1024 14 1028 2z m890 -392 l2 -400 -487 1 c-269 1
-489 2 -491 3 -1 0 87 180 197 399 l199 397 288 0 289 0 3 -400z m0 -1719 l-3
-1051 -32 -65 c-57 -117 -176 -207 -298 -227 -27 -4 -1146 -8 -2485 -7 -2341
0 -2437 1 -2495 19 -112 35 -192 104 -248 215 l-32 65 -3 1051 -2 1052 2800 0
2801 0 -3 -1052z"/>
</g>
</svg>
